<svg id="alchemy" xmlns="http://www.w3.org/2000/svg" width="428.8" height="448" viewBox="0 0 428.8 448"><title>alchemy-logo</title><g id="circle"><path d="M400,590.5c-101.5,0-184-82.5-184-184s82.5-184,184-184,184,82.5,184,184S501.5,590.5,400,590.5Z" transform="translate(-185.6 -164.5)" style="fill:#36594a"/><path d="M400,244.5a162,162,0,1,1-114.6,47.4A160.9,160.9,0,0,1,400,244.5m0-44c-113.8,0-206,92.2-206,206s92.2,206,206,206,206-92.2,206-206-92.2-206-206-206Z" transform="translate(-185.6 -164.5)" style="fill:#333"/><path d="M596,406.5a195.4,195.4,0,1,0-15.4,76.3A194.8,194.8,0,0,0,596,406.5ZM532.2,538.7A187,187,0,1,1,587,406.5,185.8,185.8,0,0,1,532.2,538.7Z" transform="translate(-185.6 -164.5)" style="fill:#fff"/></g><g id="triangle"><polygon points="74.1 323 214.4 80 354.7 323 74.1 323" style="fill:#36594a"/><path d="M400,288.5l102.2,177H297.8L400,288.5m0-88-178.4,309H578.4L400,200.5Z" transform="translate(-185.6 -164.5)" style="fill:#333"/><path d="M400,248.5l-136.8,237H536.8Zm0,18,121.2,210H278.8Z" transform="translate(-185.6 -164.5)" style="fill:#fff"/></g><g id="circles"><path d="M578.4,533.5a24,24,0,1,1,24-24A24,24,0,0,1,578.4,533.5Z" transform="translate(-185.6 -164.5)" style="fill:#fff"/><path d="M578.4,497.5a12,12,0,1,1-12,12,12,12,0,0,1,12-12m0-24a36,36,0,1,0,36,36,36,36,0,0,0-36-36Z" transform="translate(-185.6 -164.5)" style="fill:#333"/><path d="M400.5,224.5a24,24,0,1,1,24-24A24,24,0,0,1,400.5,224.5Z" transform="translate(-185.6 -164.5)" style="fill:#fff"/><path d="M400.5,188.5a12,12,0,1,1-12,12,12,12,0,0,1,12-12m0-24a36,36,0,1,0,36,36,36,36,0,0,0-36-36Z" transform="translate(-185.6 -164.5)" style="fill:#333"/><path d="M221.6,532.3a24,24,0,1,1,24-24A24,24,0,0,1,221.6,532.3Z" transform="translate(-185.6 -164.5)" style="fill:#fff"/><path d="M221.6,496.3a12,12,0,1,1-12,12,12,12,0,0,1,12-12m0-24a36,36,0,1,0,36,36,36,36,0,0,0-36-36Z" transform="translate(-185.6 -164.5)" style="fill:#333"/></g></svg>